<?xml version="1.0" standalone="no"?><!DOCTYPE svg PUBLIC "-//W3C//DTD SVG 1.1//EN" "http://www.w3.org/Graphics/SVG/1.1/DTD/svg11.dtd"><svg t="1603009372996" class="icon" viewBox="0 0 1024 1024" version="1.1" xmlns="http://www.w3.org/2000/svg" p-id="14559" xmlns:xlink="http://www.w3.org/1999/xlink" width="200" height="200"><defs><style type="text/css"></style></defs><path d="M174.8 118.9h0.4-0.4zM230.6 63h55.9v167.6h-55.9zM733.5 63h55.9v167.6h-55.9zM844.8 118.9h0.4-0.4z" p-id="14560" fill="#dbdbdb"></path><path d="M845.2 118.9v83.8c0 46.3-37.5 83.8-83.8 83.8s-83.8-37.5-83.8-83.8v-83.8H342.4v83.8c0 46.3-37.5 83.8-83.8 83.8s-83.8-37.5-83.8-83.8v-83.8C113 119.1 63 169.3 63 231.1v613.2c0 62 50.2 112.7 112.2 112.7h669.6c62 0 112.2-50.2 112.2-112.2V231.1c0-61.8-50-112-111.8-112.2z m55.2 738.4c0 24.7-20 44.7-44.7 44.7H162.9c-24.7 0-44.7-20-44.7-44.7v-432c0-24.7 20-44.7 44.7-44.7h692.8c24.7 0 44.7 20 44.7 44.7v432z" p-id="14561" fill="#dbdbdb"></path><path d="M230.6 490.8h167.6v111.7H230.6V490.8zM454.1 490.8h167.6v111.7H454.1V490.8zM677.6 490.8h111.7v111.7H677.6V490.8zM230.6 658.4h167.6v111.7H230.6V658.4zM454.1 658.4h167.6v111.7H454.1V658.4zM677.6 658.4h111.7v111.7H677.6V658.4z" p-id="14562" fill="#dbdbdb"></path></svg>