<?xml version="1.0" standalone="no"?><!DOCTYPE svg PUBLIC "-//W3C//DTD SVG 1.1//EN" "http://www.w3.org/Graphics/SVG/1.1/DTD/svg11.dtd"><svg t="1602983611492" class="icon" viewBox="0 0 1184 1024" version="1.1" xmlns="http://www.w3.org/2000/svg" p-id="12388" xmlns:xlink="http://www.w3.org/1999/xlink" width="231.25" height="200"><defs><style type="text/css"></style></defs><path d="M902.329108 97.982754l-67.834215 64.604014a94.752554 94.752554 0 0 0 7.537135-36.608941v-28.533439h60.29708z m134.053329 384.393883v394.622851a147.512498 147.512498 0 0 1-148.589232 146.974132H148.615613a149.127599 149.127599 0 0 1-107.673357-43.069343A145.359031 145.359031 0 0 1 0.026381 876.999488V244.418519a147.512498 147.512498 0 0 1 148.589232-146.974131h46.299543v30.686906A97.444388 97.444388 0 0 0 360.732125 196.503876a95.29092 95.29092 0 0 0 28.533439-67.834215v-31.225273H646.066519v30.686906a95.29092 95.29092 0 0 0 43.069343 79.678284 98.521121 98.521121 0 0 0 93.137453 8.613869l-141.052097 139.975363H64.630395v466.225633a73.217882 73.217882 0 0 0 73.756249 72.141149h758.558796A73.217882 73.217882 0 0 0 969.086589 822.086077v-275.643793l64.604014-64.065647zM478.63445 516.832111l-23.149771 22.611405h-107.673357V443.614229h130.823128z m-53.836678 53.836678l-7.537135 7.537135-24.226505 88.292153h-44.146076v-94.752554h74.294616z m-41.992609 130.284762l-25.841606 95.829287h-8.075501v-95.829287z m434.461993 0h50.068111v95.829287H737.588872v-17.766104l79.139917-78.063183zM226.678796 65.142381a64.873197 64.873197 0 0 1 129.746395 0V129.208028a63.52728 63.52728 0 0 1-18.842838 45.222809 65.680747 65.680747 0 0 1-91.522353 0 62.988914 62.988914 0 0 1-18.842837-45.222809V65.142381z m453.304831 0a64.873197 64.873197 0 0 1 129.746394 0V129.208028a62.988914 62.988914 0 0 1-18.842837 45.222809 65.680747 65.680747 0 0 1-91.522353 0 62.988914 62.988914 0 0 1-18.842837-45.222809V65.142381z m-525.44598 506.603142h129.746395v95.829287H154.537647v-95.829287z m0 128.131294h129.746395v95.829287H154.537647z m781.708568-518.447211L1076.759945 318.713135l-383.317149 376.856748-139.436996-137.821896zM1022.923267 95.29092a74.832983 74.832983 0 0 1 104.443156 0l34.993841 34.455475a72.141149 72.141149 0 0 1 0 101.751321l-53.836678 53.836679L969.086589 146.974132z m-504.449675 497.989274l139.436997 137.28353-215.346713 73.217882z" p-id="12389" fill="#9CCAC0"></path></svg>