<?xml version="1.0" standalone="no"?><!DOCTYPE svg PUBLIC "-//W3C//DTD SVG 1.1//EN" "http://www.w3.org/Graphics/SVG/1.1/DTD/svg11.dtd"><svg t="1603025385428" class="icon" viewBox="0 0 1024 1024" version="1.1" xmlns="http://www.w3.org/2000/svg" p-id="1442" xmlns:xlink="http://www.w3.org/1999/xlink" width="200" height="200"><defs><style type="text/css"></style></defs><path d="M870.144 549.8368c-52.1728 0-95.488-37.7856-104.1408-87.5008-10.6496 3.6352-22.0672 5.632-33.9456 5.632-58.4192 0-116.3776-50.688-116.3776-109.1072 0-19.5584-4.7616-58.6752 4.5056-74.3936-35.0208-17.2544-44.2368-28.1088-44.2368-69.7856 0-25.5488-22.0672-56.2688-6.9632-74.5472-27.4944-6.0928-19.0464-3.0208-48.384-3.0208-216.7808 0-392.4992 175.7184-392.4992 392.4992 0 216.7808 175.7184 392.4992 392.4992 392.4992 212.992 0 386.4064-169.6768 392.3456-381.2864a105.9584 105.9584 0 0 1-42.8032 9.0112z m-349.5936 85.504c-58.4192 0-105.728-47.36-105.728-105.728 0-58.4192 47.36-105.728 105.728-105.728 58.4192 0 105.728 47.36 105.728 105.728 0.0512 58.4192-47.3088 105.728-105.728 105.728z" fill="#FFA750" p-id="1443"></path><path d="M269.4144 451.4816c-5.9392-47.3088 18.944-53.1968 34.304-16.5376s23.6544 60.672 53.1968 48.4864c29.5936-12.1856 21.2992-47.3088-4.7104-83.968-26.0096-36.6592 21.2992-49.664 44.9536-16.5376 23.6544 33.1264 125.3376 21.2992 139.5712-8.2944 10.1376-21.1456 10.1376-77.2608 50.2272-113.2032-4.9664-6.2976-7.936-13.7728-9.472-23.7056A112.40448 112.40448 0 0 1 557.824 174.08c0-12.288 2.048-24.064 5.632-35.1232-20.8384-4.4544-15.7184-1.792-42.8544-1.792-205.7728 0-374.4256 158.3616-391.0144 359.8336 11.2128-2.5088 21.8112-8.4992 31.0784-19.456 24.832-33.1264 59.136-20.8896 43.776 20.8896s-34.304 118.6816 26.0096 119.8592c60.2624 1.1264 44.8512-119.552 38.9632-166.8096z" fill="#884306" p-id="1444"></path><path d="M696.576 197.3248s219.392-17.9712 279.5008 187.4944c-52.1216-17.5104-174.8992-58.7776-174.8992-58.7776l-104.6016-128.7168z" fill="#FFA750" p-id="1445"></path><path d="M976.0768 400.1792c-1.6384 0-3.2768-0.256-4.9152-0.8192l-174.8992-58.7776c-2.7648-0.9216-5.1712-2.6112-7.0144-4.864l-104.6016-128.7168a15.34976 15.34976 0 0 1 10.6496-24.9856c2.304-0.2048 232.6016-16.5376 295.4752 198.5024 1.5872 5.4784 0 11.4176-4.096 15.36-2.8672 2.7648-6.7072 4.3008-10.5984 4.3008z m-165.7856-87.296l140.9024 47.36c-50.5856-122.1632-166.4-144.2304-222.3104-147.5584l81.408 100.1984z" fill="#333333" p-id="1446"></path><path d="M921.4464 512.1536c-4.352-2.9184-9.9328-3.4304-14.7456-1.28a97.58208 97.58208 0 0 1-39.6288 8.3456c-47.7696 0-88.4224-34.1504-96.5632-81.152-0.768-4.4032-3.4304-8.2944-7.2704-10.5984-3.84-2.304-8.4992-2.7648-12.8-1.3312-10.24 3.4816-20.8384 5.2224-31.488 5.2224-54.0672 0-98.0992-43.9808-98.0992-98.0992 0-17.4592 4.7104-34.6112 13.568-49.664 2.1504-3.6864 2.7136-8.0896 1.4848-12.1856-1.2288-4.096-4.096-7.4752-7.936-9.3696-8.8064-4.352-16.7424-9.8816-23.7056-16.3328-0.2048-0.2048-0.3584-0.4608-0.6144-0.7168a97.14688 97.14688 0 0 1-25.8048-40.9088c-0.1024-0.3584-0.256-0.768-0.3584-1.1264-0.9216-2.9184-1.6896-5.8368-2.304-8.8576l-0.1536-0.9728c-0.512-2.56-0.8704-5.1712-1.1776-7.8336-0.1024-0.768-0.1536-1.536-0.256-2.304-0.256-2.9696-0.4608-5.9392-0.4608-8.96a98.35008 98.35008 0 0 1 22.3744-62.3616c2.56-3.072 3.7376-7.0144 3.4816-10.9056-0.1024-1.28-0.3584-2.6112-0.8192-3.84a15.27296 15.27296 0 0 0-11.2128-9.984 438.8864 438.8864 0 0 0-94.976-10.4448c-7.3216 0-14.6432 0.2048-21.9136 0.5632-2.8672 0.1536-5.7344 0.4096-8.6016 0.6144-4.352 0.3072-8.6528 0.5632-12.9536 0.9728-3.6352 0.3584-7.168 0.8704-10.752 1.3312-3.4816 0.4096-6.9632 0.8192-10.4448 1.3312-3.9936 0.6144-7.8848 1.3312-11.8784 2.048-3.0208 0.512-6.0416 1.024-9.0112 1.5872-4.1984 0.8192-8.3456 1.792-12.4416 2.7648-2.6624 0.6144-5.376 1.1776-8.0384 1.8432-4.3008 1.0752-8.4992 2.2528-12.7488 3.4816-2.4576 0.7168-4.9152 1.3824-7.3728 2.0992-4.3008 1.3312-8.6016 2.7136-12.8512 4.1472-2.304 0.768-4.608 1.536-6.912 2.3552-4.3008 1.536-8.4992 3.1744-12.7488 4.8128-2.2016 0.8704-4.4544 1.7408-6.656 2.6112-4.1984 1.7408-8.3456 3.5328-12.4416 5.376a372.7616 372.7616 0 0 0-18.5344 8.8576c-2.2016 1.1264-4.352 2.2016-6.5536 3.3792-3.84 2.048-7.68 4.1472-11.4176 6.2464-2.2528 1.28-4.4544 2.56-6.7072 3.84-3.6352 2.1504-7.2192 4.3008-10.752 6.5536-2.304 1.4848-4.608 2.9184-6.912 4.4544-3.3792 2.2016-6.7072 4.4544-9.984 6.7072-2.4064 1.6896-4.8128 3.3792-7.2192 5.12-3.072 2.2528-6.0928 4.5056-9.1136 6.8096-2.56 1.9456-5.0688 3.9424-7.5776 5.9392-2.7648 2.2016-5.4784 4.4544-8.192 6.7072-2.6624 2.2528-5.3248 4.5568-7.936 6.912-2.4064 2.1504-4.864 4.3008-7.2192 6.4512-2.816 2.6112-5.5808 5.2736-8.3456 7.9872-2.0992 2.048-4.1472 4.0448-6.1952 6.0928-2.9696 3.0208-5.888 6.0928-8.7552 9.216-1.7408 1.8432-3.4816 3.6864-5.1712 5.5808-3.1232 3.4816-6.144 7.0144-9.1648 10.5472-1.3824 1.6384-2.7648 3.2256-4.1472 4.864-3.1232 3.9424-6.2976 8.0384-9.4208 12.1344l-3.072 3.9936c-3.3792 4.5568-6.656 9.216-9.8816 13.8752-0.6656 0.9728-1.3824 1.8944-1.9968 2.8672a402.2272 402.2272 0 0 0-10.24 15.9744c-0.3072 0.4608-0.6144 0.9216-0.8704 1.3824a433.26464 433.26464 0 0 0-43.4176 96.1024c-0.3072 0.9728-0.5632 1.9968-0.8704 3.0208-1.7408 5.632-3.3792 11.3152-4.864 17.1008-0.7168 2.7136-1.28 5.5296-1.9456 8.2944-0.9728 4.0448-1.9456 8.0896-2.816 12.1856-0.768 3.6352-1.3824 7.3216-2.048 11.008-0.6144 3.2768-1.2288 6.5024-1.7408 9.7792-0.6656 4.1984-1.1776 8.448-1.7408 12.6976-0.3584 2.816-0.768 5.632-1.0752 8.4992-0.512 4.5056-0.8192 9.0624-1.1776 13.6192-0.1536 2.0992-0.4096 4.1984-0.5632 6.2976v0.7168c-0.512 8.8064-0.8704 17.664-0.8704 26.624 0 240.64 195.7376 436.3776 436.3776 436.3776 114.3808 0 222.5152-43.9296 304.4352-123.7504 81.7664-79.616 128.5632-186.2656 131.7376-300.1856 0.1024-5.2736-2.4576-10.24-6.8096-13.1584z m-363.4176-399.5648a128.87552 128.87552 0 0 0-15.616 61.44c0 3.3792 0.1536 6.7072 0.4096 9.984 0.0512 0.9728 0.1536 1.8944 0.256 2.8672 0.256 2.56 0.5632 5.0688 0.9728 7.5264 0.1536 0.8192 0.256 1.6896 0.4096 2.5088 0.5632 3.2768 1.28 6.5536 2.0992 9.7792 0.0512 0.1024 0.0512 0.2048 0.1024 0.3584 0.8704 3.2256 1.8432 6.4 2.9184 9.5232l0.4608 1.2288c4.864 13.568 11.9296 26.2144 20.992 37.3248-27.6992 28.2112-36.096 64.8192-41.8816 90.112-2.1504 9.2672-4.1472 18.0736-6.3488 22.6304-2.3552 4.864-15.104 12.032-34.7648 16.2304-8.3968 0.256-16.5888 1.3312-24.5248 3.1232-25.5488 1.2288-47.2064-4.0448-53.8624-13.3632-18.9952-26.624-50.3296-31.2832-67.6864-18.944-13.2608 9.472-19.1488 29.5936-2.304 53.2992 18.432 25.9584 22.4256 44.1344 20.0192 52.48-0.7168 2.56-2.4064 5.8368-8.6016 8.3968-11.0592 4.5568-14.0288 5.7856-31.0272-35.072l-2.1504-5.1712c-15.3088-36.4544-36.3008-33.9968-42.3936-32.3584-8.2432 2.2016-26.88 12.1344-21.2992 56.7808l0.1024 0.6656c3.9936 32 14.6432 116.992-8.3968 142.5408-3.9936 4.4544-8.6016 6.2464-15.2064 6.2464-13.5168-0.256-18.3808-5.1712-20.8896-8.8576-9.728-14.2336-6.2464-48.8448 9.0112-90.3168 11.264-30.6176 0.9216-49.3568-12.4928-56.6784-4.5568-2.4576-9.9328-3.84-15.7696-3.84-13.1072 0-28.5184 7.0656-41.9328 24.7808-5.632 6.656-21.3504 24.4224-60.5184 8.96l0.1536-2.048c0.3584-3.7888 0.8192-7.5264 1.28-11.3152 0.3584-2.9696 0.7168-5.888 1.1264-8.8064 0.4608-3.3792 1.0752-6.7584 1.6384-10.1376 0.5632-3.2768 1.1264-6.5536 1.7408-9.7792 0.5632-3.0208 1.2288-5.9904 1.8944-8.96 0.768-3.584 1.5872-7.1168 2.4576-10.7008 0.6656-2.6624 1.3312-5.2736 2.048-7.8848 1.024-3.84 2.0992-7.68 3.2768-11.4688 0.6656-2.304 1.3824-4.5568 2.1504-6.8608 1.3312-4.096 2.7136-8.1408 4.1472-12.1856 0.7168-1.9456 1.3824-3.8912 2.1504-5.888 1.6384-4.3008 3.328-8.6016 5.0688-12.8 0.6656-1.6384 1.3824-3.2768 2.048-4.9152 1.9456-4.5056 3.9424-8.96 6.0416-13.3632 0.6656-1.3824 1.28-2.7136 1.9456-4.096 2.2528-4.6592 4.6592-9.216 7.0656-13.7728 0.5632-1.0752 1.1264-2.1504 1.7408-3.2256 2.6112-4.8128 5.376-9.5232 8.192-14.2336 0.4608-0.768 0.9216-1.5872 1.4336-2.4064 3.0208-4.9664 6.1952-9.8816 9.4208-14.7456 0.3072-0.4608 0.6144-0.9728 0.9216-1.4336 3.5328-5.2224 7.2192-10.3936 11.008-15.4624 0.0512-0.0512 0.1024-0.1536 0.1536-0.2048 15.4624-20.6336 32.8192-39.7824 51.8656-57.088 1.4336-1.3312 2.9696-2.6112 4.4544-3.8912 3.1744-2.816 6.4-5.6832 9.6768-8.3968 2.1504-1.792 4.4032-3.5328 6.6048-5.2736 2.6624-2.1504 5.3248-4.3008 8.0896-6.3488 2.6112-1.9456 5.2736-3.84 7.8848-5.7344 2.4064-1.7408 4.8128-3.4816 7.3216-5.1712 2.9184-1.9968 5.888-3.8912 8.8576-5.8368 2.304-1.4848 4.5568-2.9696 6.912-4.4032 3.1232-1.9456 6.3488-3.84 9.5232-5.6832 2.2016-1.28 4.4544-2.6112 6.656-3.84 3.328-1.8432 6.7072-3.6352 10.0864-5.4272 2.2016-1.1264 4.4032-2.304 6.6048-3.3792a395.6224 395.6224 0 0 1 17.152-8.0896c3.584-1.5872 7.168-3.1232 10.8032-4.608 2.2528-0.9216 4.5568-1.8432 6.8608-2.7136 3.6352-1.3824 7.3216-2.7648 11.008-4.096 2.3552-0.8192 4.7616-1.6384 7.168-2.4064 3.6352-1.2288 7.3216-2.4064 11.0592-3.5328 2.5088-0.768 5.0688-1.4336 7.6288-2.1504 3.6352-1.024 7.2704-1.9968 10.9568-2.9184 2.7136-0.6656 5.4784-1.28 8.192-1.8944 3.5328-0.8192 7.1168-1.6384 10.7008-2.304 3.0208-0.6144 6.0416-1.0752 9.0624-1.6384 3.3792-0.6144 6.7584-1.2288 10.1888-1.7408 3.3792-0.512 6.8096-0.8704 10.24-1.3312 3.1232-0.3584 6.1952-0.8192 9.3184-1.1264 4.096-0.4096 8.192-0.6656 12.3392-0.9216 2.5088-0.1536 5.0176-0.4096 7.5776-0.5632 6.7072-0.3072 13.4144-0.512 20.224-0.512 21.8624 0.1536 43.9808 1.9456 65.792 5.5296zM492.032 414.7712c54.0672 0 98.0992 43.9808 98.0992 98.0992 0 54.0672-43.9808 98.0992-98.0992 98.0992s-98.0992-43.9808-98.0992-98.0992c0-45.9264 31.7952-84.48 74.496-95.0784a179.2 179.2 0 0 0 3.8912-0.3072c6.1952-0.512 12.6464-1.4336 19.0464-2.6624 0.256 0 0.4608-0.0512 0.6656-0.0512zM388.2496 436.736c-4.608-16.7424-14.2848-33.2288-23.5008-46.1824-4.5056-6.3488-4.9152-10.0864-4.9664-10.4448 0.3072-0.256 2.2016-1.1776 5.8368-0.768 6.912 0.768 14.0288 5.4272 19.0464 12.4928 6.8096 9.5744 16.9984 15.7184 28.1088 19.6608a125.93152 125.93152 0 0 0-24.5248 25.2416z m103.7824 481.792c-223.6928 0-405.6576-181.9648-405.6576-405.6576 0-1.3824 0.1024-2.7648 0.1024-4.096 34.9696 10.752 64.9728 3.5328 85.8624-21.4016 0.2048-0.2048 0.3584-0.4608 0.512-0.6656 9.1136-12.1856 17.3056-13.4656 18.688-12.6976 0.5632 0.3072 3.2768 5.7344-1.6384 19.0976-13.7728 37.4784-25.9584 88.4224-5.5296 118.272 6.7584 9.8816 20.1216 21.7088 45.6704 22.2208h1.1264c14.848 0 27.8016-5.6832 37.4784-16.4352 28.4672-31.6416 24.5248-98.9184 16.0256-166.912l-0.1024-0.6656c-1.0752-8.7552-0.8704-14.7456-0.3072-18.5856 1.536 2.2016 3.328 5.376 5.2224 9.8816l2.1504 5.12c13.4656 32.3584 28.7744 69.0176 71.0656 51.6096 0.512-0.2048 0.9728-0.4608 1.4848-0.7168-0.6656 5.2224-1.024 10.5472-1.024 15.9744 0 71.0144 57.7536 128.8192 128.8192 128.8192s128.8192-57.8048 128.8192-128.8192c0-53.76-33.1264-99.8912-80.0256-119.1936 4.096-3.6864 7.4752-7.8336 9.6768-12.4416 3.6864-7.68 5.9392-17.5616 8.6016-29.0816 5.5296-24.2176 12.3392-53.7088 34.048-75.6224 2.4576 1.8944 5.0176 3.6864 7.6288 5.4272a128.03072 128.03072 0 0 0-10.7008 51.3536c0 71.0144 57.7536 128.8192 128.8192 128.8192 8.448 0 16.896-0.8192 25.1904-2.5088 16.4864 53.248 65.8432 90.368 122.9312 90.368 9.9328 0 19.712-1.1264 29.2864-3.3792-16.9472 210.2272-190.464 371.9168-404.224 371.9168z" fill="#333333" p-id="1447"></path><path d="M495.5136 255.3856c-1.8432 0-3.6864-0.3584-5.5296-1.024l-40.704-15.7184c-7.936-3.072-11.8272-11.9296-8.8064-19.8656s11.9296-11.8272 19.8656-8.8064l40.704 15.7184c7.936 3.072 11.8272 11.9296 8.8064 19.8656a15.39584 15.39584 0 0 1-14.336 9.8304z" fill="#FAEE47" p-id="1448"></path><path d="M337.5616 262.1952c-1.28 0-2.56-0.1536-3.84-0.4608a15.36 15.36 0 0 1-11.0592-18.688l9.5744-37.4784a15.36 15.36 0 0 1 18.688-11.0592 15.36 15.36 0 0 1 11.0592 18.688l-9.5744 37.4784a15.30368 15.30368 0 0 1-14.848 11.52z" fill="#F8455E" p-id="1449"></path><path d="M205.7216 353.9456c-5.632 0-11.008-3.072-13.7216-8.448a15.34976 15.34976 0 0 1 6.8096-20.6336l54.4256-27.392c7.5776-3.84 16.7936-0.768 20.6336 6.8096 3.84 7.5776 0.768 16.7936-6.8096 20.6336l-54.4256 27.392c-2.2016 1.0752-4.5568 1.6384-6.912 1.6384z" fill="#3DC4AC" p-id="1450"></path></svg>