<?xml version="1.0" standalone="no"?><!DOCTYPE svg PUBLIC "-//W3C//DTD SVG 1.1//EN" "http://www.w3.org/Graphics/SVG/1.1/DTD/svg11.dtd"><svg t="1603025996151" class="icon" viewBox="0 0 1397 1024" version="1.1" xmlns="http://www.w3.org/2000/svg" p-id="4532" xmlns:xlink="http://www.w3.org/1999/xlink" width="272.8515625" height="200"><defs><style type="text/css"></style></defs><path d="M1056.48627 704.597174h232.044788v38.219142h-232.044788zM1056.48627 812.97574h232.044788v43.406025h-232.044788zM1288.531058 595.399627h-232.044788v38.219141h232.044788v-38.219141zM357.621967 524.967209c0-10.919755-12.284724-19.928552-27.299386-19.928553s-27.299387 9.008798-27.299387 19.928553v245.148493h54.598773v-245.148493zM62.78859 920.808318h1288.531058V977.318049H62.78859z" fill="#CD3333" p-id="4533"></path><path d="M1370.429219 540.800853h-172.259131l-2.456945-3.54892c-22.112503-31.394295-54.871768-53.233804-92.544921-61.423621l-138.680885-30.302319 15.833644-10.646761c48.865902-32.759264 77.803252-87.358038 77.803253-146.051719V184.270861c0-97.185817-78.895228-176.081045-176.081046-176.081045s-176.081045 78.895228-176.081045 176.081045v104.556652c0 58.420688 28.93735 113.019461 77.803253 146.051719l15.833644 10.646761-138.680885 30.302319c-4.640896 1.091975-9.554785 2.456945-14.468675 3.821915l-10.646761 3.54892V245.967475c0-10.646761-8.46281-19.109571-19.109571-19.10957h-185.63583c-10.646761 0-19.109571 8.46281-19.109571 19.10957s8.46281 19.109571 19.109571 19.109571h166.52626v398.571048h-202.015463v-144.68675c0-40.676086-33.032258-73.708344-73.708344-73.708345s-73.708344 33.032258-73.708345 73.708345v144.68675H46.408958v-398.571048h166.526259c10.646761 0 19.109571-8.46281 19.109571-19.109571s-8.46281-19.109571-19.109571-19.10957H27.299387c-10.646761 0-19.109571 8.46281-19.109571 19.10957v436.79019c0 10.646761 8.46281 19.109571 19.109571 19.10957h221.125033v68.248467h-10.919755c-42.041056 0-76.438283 34.397227-76.438283 76.438284v21.839509H27.299387c-10.646761 0-19.109571 8.46281-19.109571 19.109571v109.197547c0 10.646761 8.46281 19.109571 19.109571 19.109571h1343.129832c10.646761 0 19.109571-8.46281 19.109571-19.109571v-436.790189c0-10.646761-8.46281-19.109571-19.109571-19.109571zM882.316182 46.408958c71.524393 0 131.856038 55.690749 137.315916 126.942148l1.091976 15.560651-76.984271-45.316982c-8.189816-4.640896-18.290589-3.002933-24.296455 4.094908a152.677281 152.677281 0 0 1-117.387363 54.871767h-57.601706v-18.563583c0-75.892295 61.696614-137.58891 137.861903-137.588909z m-137.861903 242.145561V241.053586h57.601706c49.138896 0 95.820848-18.563583 131.310051-52.141829l4.367902-4.094908 82.171154 48.319915v55.690749c0 75.892295-61.696614 137.861903-137.861904 137.861903s-137.58891-61.969608-137.588909-138.134897z m193.552652 167.618235L881.770195 606.592375 825.533458 455.89976l15.014663 3.54892c27.026393 6.551853 55.417755 6.824847 82.717142 0.272994l14.741668-3.54892z m-358.713942 245.694481H616.966142c10.646761 0 19.109571-8.46281 19.109571-19.10957v-156.698481l4.367902-2.183951c9.008798-4.91389 18.836577-8.46281 28.93735-10.646761l126.396161-27.845374 68.248467 182.632898c2.729939 7.370834 10.100773 12.284724 18.017595 12.284724 7.916822 0 15.014663-4.91389 18.017596-12.284724l68.248467-182.632898 127.215142 27.845374c11.192749 2.456945 21.839509 6.551853 31.940283 12.284724l27.026393 15.287657H1020.997067c-10.646761 0-19.109571 8.46281-19.10957 19.109571v308.483071H579.292989v-166.52626z m-183.45188 0h145.232738v166.52626H483.199147v-21.839509c0-42.041056-34.397227-76.438283-76.438283-76.438284h-10.919755v-68.248467z m-109.197547 68.248467v-251.154358c0-19.655559 15.833644-35.489203 35.489203-35.489203s35.489203 15.833644 35.489202 35.489203v251.154358h-70.978405z m-87.358038 76.438284c0-21.020528 17.198614-38.219142 38.219141-38.219142h169.256199c21.020528 0 38.219142 17.198614 38.219141 38.219142v21.839509H199.285524v-21.839509z m1152.034124 131.037056H46.408958v-70.978405h1304.91069v70.978405z m0-109.197547H1040.106638v-70.978406h311.21301v70.978406z m0-109.197547H1040.106638v-70.978406h311.21301v70.978406z m-311.21301-109.197548v-70.978405h311.21301v70.978405" fill="#222222" p-id="4534"></path><path d="M322.132765 265.077046c4.91389 0 9.827779-1.910957 13.376699-5.732871 3.54892-3.54892 5.732871-8.46281 5.732871-13.3767 0-4.91389-1.910957-9.827779-5.732871-13.376699-3.54892-3.54892-8.46281-5.732871-13.376699-5.732871-4.91389 0-9.827779 1.910957-13.3767 5.732871-3.54892 3.54892-5.732871 8.46281-5.732871 13.376699 0 4.91389 1.910957 9.827779 5.732871 13.3767 3.54892 3.54892 8.46281 5.732871 13.3767 5.732871z" fill="#222222" p-id="4535"></path></svg>