<?xml version="1.0" standalone="no"?><!DOCTYPE svg PUBLIC "-//W3C//DTD SVG 1.1//EN" "http://www.w3.org/Graphics/SVG/1.1/DTD/svg11.dtd"><svg t="1603025842900" class="icon" viewBox="0 0 1024 1024" version="1.1" xmlns="http://www.w3.org/2000/svg" p-id="1894" xmlns:xlink="http://www.w3.org/1999/xlink" width="200" height="200"><defs><style type="text/css"></style></defs><path d="M868.8 802.9H155.2c-34.8 0-63.2-28.4-63.2-63.2 0-6.2 5.1-11.3 11.3-11.3h817.3c6.2 0 11.3 5.1 11.3 11.3 0.1 34.8-28.3 63.2-63.1 63.2z" fill="#FAD672" p-id="1895"></path><path d="M841.4 728.2H182.6c-18.8 0-34-15.2-34-34V250c0-18.8 15.2-34 34-34h658.8c18.8 0 34 15.2 34 34v444.2c0 18.8-15.2 34-34 34z" fill="#FDF17F" p-id="1896"></path><path d="M875.4 694c0 18.8-15.1 34.1-33.8 34.1h-50.7c18.7 0 33.8-15.3 33.8-34.1V250.2c0-18.8-15.1-34.1-33.7-34.1h50.6c18.7 0 33.8 15.3 33.8 34.1V694z" fill="#FAD672" p-id="1897"></path><path d="M824.7 666.1c0 3.6-2.9 6.6-6.6 6.6H205.9c-3.6 0-6.6-2.9-6.6-6.6V273.4c0-3.6 2.9-6.6 6.6-6.6h612.2c3.6 0 6.6 2.9 6.6 6.6v392.7z" fill="#50E6CC" p-id="1898"></path><path d="M818.1 672.6H774V266.8h44.1c3.6 0 6.6 2.9 6.6 6.6v392.7c0 3.6-3 6.5-6.6 6.5z" fill="#45DABD" p-id="1899"></path><path d="M565.7 759H458.3c-10.5 0-19-8.5-19-19v-11.6h145.4V740c0 10.5-8.5 19-19 19z" fill="#EB866B" p-id="1900"></path><path d="M932 739.7c0 17.4-7.1 33.2-18.6 44.6-11.5 11.5-27.3 18.6-44.6 18.6h-50c17.4 0 33.2-7.1 44.6-18.6 11.5-11.5 18.6-27.3 18.6-44.6 0-6.2-5.1-11.3-11.3-11.3h50c6.2 0 11.3 5.1 11.3 11.3z" fill="#F7BD81" p-id="1901"></path><path d="M920.6 718.4h-42.5c4.6-6.9 7.3-15.3 7.3-24.2V250c0-24.3-19.7-44-44-44H182.6c-24.3 0-44 19.7-44 44v444.2c0 8.9 2.7 17.3 7.3 24.2h-42.6c-11.7 0-21.3 9.6-21.3 21.3 0 40.4 32.8 73.2 73.2 73.2h713.6c19.5 0 37.9-7.6 51.8-21.5 13.8-13.9 21.4-32.2 21.3-51.7 0-11.7-9.6-21.3-21.3-21.3z m-471.3 20h125.4v1.6c0 5-4 9-9 9H458.3c-5 0-9-4-9-9v-1.6zM158.6 250c0-13.2 10.8-24 24-24h658.8c13.2 0 24 10.8 24 24v444.2c0 13.2-10.8 24-24 24H182.6c-13.2 0-24-10.8-24-24V250z m747.8 527.2c-10.1 10.1-23.4 15.7-37.6 15.7H155.2c-29.3 0-53.2-23.9-53.2-53.2 0-0.7 0.6-1.3 1.3-1.3h326v1.6c0 16 13 29 29 29h107.4c16 0 29-13 29-29v-1.6h325.9c0.7 0 1.3 0.6 1.3 1.3 0 14.2-5.5 27.5-15.5 37.5z" fill="#00435B" p-id="1902"></path><path d="M205.9 682.7h612.2c9.2 0 16.6-7.4 16.6-16.6V273.4c0-9.2-7.4-16.6-16.6-16.6H205.9c-9.2 0-16.6 7.4-16.6 16.6v392.7c0 9.2 7.4 16.6 16.6 16.6z m3.4-405.9h605.4v385.9H209.3V276.8z" fill="#00435B" p-id="1903"></path></svg>