<?xml version="1.0" standalone="no"?><!DOCTYPE svg PUBLIC "-//W3C//DTD SVG 1.1//EN" "http://www.w3.org/Graphics/SVG/1.1/DTD/svg11.dtd"><svg t="1603025699943" class="icon" viewBox="0 0 1024 1024" version="1.1" xmlns="http://www.w3.org/2000/svg" p-id="2905" xmlns:xlink="http://www.w3.org/1999/xlink" width="200" height="200"><defs><style type="text/css"></style></defs><path d="M352.2048 187.5968s4.864 62.1056 61.2864 175.8208h212.736v35.584c73.1648-137.4208 71.1168-225.1264 71.1168-225.1264V86.6816c0-7.5776-4.2496-30.3104-38.4-30.3104-34.0992 0-30.3104 33.1776-30.3104 33.1776v49.7664s-67.6864 20.5824-124.9792 67.2768c0 0-83.5072-60.672-125.184-67.2768v-49.7664s1.2288-37.888-30.3104-33.1776c-1.792 13.568-0.512 35.3792-0.512 43.008s4.5568 88.2176 4.5568 88.2176zM905.9328 886.8864c-28.416-217.2928-228.9664-393.1648-289.024-455.7312-3.2256-3.3792-3.7888-8.448-1.4848-12.4928 3.7888-6.656 7.3216-13.1584 10.752-19.6096H431.9744c3.4816 6.4 7.0656 12.9536 10.8544 19.6096 2.304 4.0448 1.7408 9.1136-1.4848 12.4928-60.1088 62.6176-247.296 263.0144-300.9024 464.2816-8.8064 33.0752-19.2512 57.344 15.0016 58.6752 32.9728 1.3312 60.16-25.0368 60.16-57.7536 0 31.8976 25.856 57.8048 57.8048 57.8048 31.8976 0 57.8048-25.856 57.8048-57.8048 0 31.8976 25.856 57.8048 57.8048 57.8048s57.8048-25.856 57.8048-57.8048c0 31.8976 25.856 57.8048 57.8048 57.8048 31.8976 0 57.8048-25.856 57.8048-57.8048 0 31.8976 25.856 57.8048 57.8048 57.8048 31.9488 0 57.8048-25.856 57.8048-57.8048 0 31.8976 25.856 57.8048 57.8048 57.8048 31.8976 0 57.8048-25.856 57.8048-57.8048 0 32.7168 25.0368 59.0848 58.0608 57.7536 34.0992-1.3312 58.6752-33.28 54.2208-67.2256z" fill="#84DDFD" p-id="2906"></path><path d="M621.6192 419.9424h-185.856l-15.36-35.6352h201.216z" fill="#EDC951" p-id="2907"></path><path d="M921.1904 884.8896c-25.9584-198.5536-190.0032-361.5744-268.8512-439.9104-8.3456-8.2944-15.7184-15.616-21.76-21.8624 83.5072-148.8896 82.2272-245.5552 82.1248-249.2928V86.6816c0-15.8208-11.2128-45.6704-53.76-45.6704-18.3808 0-28.9792 7.5776-34.6624 13.9264-11.7248 13.1584-11.3664 30.464-11.008 35.2768v38.0416c-20.5824 7.424-66.816 26.2656-110.08 59.136-21.5552-15.0016-72.448-48.7936-109.3632-60.16v-37.0176c0.3584-4.7616 0.7168-22.0672-11.008-35.2256C377.1392 48.64 366.5408 41.0624 348.16 41.0624c-42.496 0-53.76 29.9008-53.76 45.6704V173.568c-0.1024 4.0448-1.3824 100.7104 82.1248 249.6512-6.0416 6.2464-13.4144 13.568-21.76 21.8624-78.848 78.336-242.944 241.408-268.8512 439.9104-2.7648 21.248 3.4816 42.752 17.2544 59.0336 13.2096 15.6672 31.5904 24.7296 51.712 25.5488 1.024 0.0512 1.9968 0.0512 2.9696 0.0512 18.9952 0 36.9152-7.168 50.6368-20.4288 2.6112-2.5088 4.9664-5.12 7.1168-7.8848 13.4144 17.2032 34.304 28.3136 57.7536 28.3136 23.5008 0 44.3904-11.1104 57.8048-28.3648 13.4144 17.2544 34.304 28.3648 57.8048 28.3648s44.3904-11.1104 57.8048-28.3648c13.4144 17.2544 34.304 28.3648 57.8048 28.3648 23.5008 0 44.3904-11.1104 57.8048-28.3648 13.4144 17.2544 34.304 28.3648 57.8048 28.3648s44.3904-11.1104 57.8048-28.3648c13.4144 17.2544 34.304 28.3648 57.8048 28.3648 23.2448 0 43.9808-10.9056 57.3952-27.8528 2.2528 2.9696 4.7104 5.7856 7.424 8.3968 13.824 13.312 32.1536 20.1216 51.6608 19.4048 20.1216-0.8192 38.5024-9.8816 51.712-25.5488 13.6704-16.3328 19.968-37.888 17.2032-59.136zM602.5728 410.112h-198.144c-7.168-12.7488-13.7216-25.088-19.6608-37.0176h237.5168c-5.9904 11.9296-12.544 24.2688-19.712 37.0176z m-277.504-236.2368V86.6816c0-5.5808 2.9696-14.9504 23.04-14.9504 5.5808 0 9.5232 1.2288 11.6736 3.584 3.328 3.6352 3.5328 10.496 3.3792 12.4416-0.0512 0.5632-0.1024 1.1776-0.1024 1.7408v49.7664c0 7.5264 5.4784 13.9776 12.9536 15.1552 31.1808 4.9664 96.1536 48.2816 118.5792 64.5632 5.632 4.096 13.312 3.8912 18.7392-0.512 54.1184-44.1344 119.0912-64.3072 119.7568-64.512a15.37536 15.37536 0 0 0 10.9056-14.6944v-49.7664c0-0.4608-0.0512-1.1264-0.1024-1.5872-0.2048-2.0992 0-8.96 3.3792-12.6464 2.2016-2.4064 6.0928-3.584 11.6736-3.584 20.0192 0 23.04 9.3696 23.04 14.9504v87.5008c0 0.768 0.4608 65.1264-45.2096 168.192H370.3296c-45.7216-103.0144-45.2608-167.424-45.2608-168.448zM880.4352 924.16c-7.5776 8.96-18.0224 14.1824-29.44 14.6432-11.1616 0.512-21.4016-3.4304-29.1328-10.8544-8.3456-8.0384-12.9536-19.2512-12.9536-31.5392 0-8.4992-6.8608-15.36-15.36-15.36s-15.36 6.8608-15.36 15.36c0 23.3984-19.0464 42.4448-42.4448 42.4448-23.3984 0-42.4448-19.0464-42.4448-42.4448 0-8.4992-6.8608-15.36-15.36-15.36s-15.36 6.8608-15.36 15.36c0 23.3984-19.0464 42.4448-42.4448 42.4448s-42.4448-19.0464-42.4448-42.4448c0-8.4992-6.8608-15.36-15.36-15.36s-15.36 6.8608-15.36 15.36c0 23.3984-19.0464 42.4448-42.4448 42.4448-23.3984 0-42.4448-19.0464-42.4448-42.4448 0-8.4992-6.8608-15.36-15.36-15.36s-15.36 6.8608-15.36 15.36c0 23.3984-19.0464 42.4448-42.4448 42.4448s-42.4448-19.0464-42.4448-42.4448c0-8.4992-6.8608-15.36-15.36-15.36s-15.36 6.8608-15.36 15.36c0 23.3984-19.0464 42.4448-42.4448 42.4448-23.3984 0-42.4448-19.0464-42.4448-42.4448 0-8.4992-6.8608-15.36-15.36-15.36s-15.36 6.8608-15.36 15.36c0 11.6736-4.608 22.528-13.056 30.6176a41.8816 41.8816 0 0 1-31.1296 11.8272c-11.4176-0.4608-21.8624-5.632-29.44-14.6432a45.4656 45.4656 0 0 1-10.24-35.2768c24.576-188.1088 183.6544-346.1632 260.0448-422.0928 9.6768-9.6256 18.0736-17.9712 24.832-24.9856 0.3072-0.3072 0.512-0.6144 0.768-0.9216H419.84c-38.8608 73.0624-69.0688 185.7024-70.5024 191.0272a15.36 15.36 0 0 0 14.848 19.3024c6.8096 0 13.0048-4.5568 14.848-11.4176 0.3584-1.3312 35.2768-131.584 76.0832-198.912h33.024v136.192c0 8.4992 6.8608 15.36 15.36 15.36s15.36-6.8608 15.36-15.36V440.832h34.56c25.9584 39.5264 65.024 155.7504 78.592 199.4752a15.3088 15.3088 0 0 0 14.6432 10.8032c1.4848 0 3.0208-0.2048 4.5568-0.7168a15.36 15.36 0 0 0 10.1376-19.2c-1.8432-5.9904-39.9872-128.4096-72.6016-190.4128h16.2816c0.256 0.3072 0.4608 0.6656 0.768 0.9216 6.7584 7.0144 15.104 15.36 24.832 24.9856 76.4416 75.9296 235.4688 233.984 260.0448 422.0928 1.6896 12.8-2.048 25.6512-10.24 35.3792z" fill="#333333" p-id="2908"></path><path d="M503.5008 663.5008c-8.4992 0-15.36-6.8608-15.36-15.36v-9.9328c0-8.4992 6.8608-15.36 15.36-15.36s15.36 6.8608 15.36 15.36v9.9328c0 8.448-6.8608 15.36-15.36 15.36z" fill="#333333" p-id="2909"></path></svg>