<?xml version="1.0" standalone="no"?><!DOCTYPE svg PUBLIC "-//W3C//DTD SVG 1.1//EN" "http://www.w3.org/Graphics/SVG/1.1/DTD/svg11.dtd"><svg t="1603025480202" class="icon" viewBox="0 0 1024 1024" version="1.1" xmlns="http://www.w3.org/2000/svg" p-id="2093" xmlns:xlink="http://www.w3.org/1999/xlink" width="200" height="200"><defs><style type="text/css"></style></defs><path d="M881.8688 441.7536c-14.1824 179.456-166.0928 339.456-343.3984 339.456s-358.5536-151.9616-358.5536-339.456h-90.624c0 255.7952 207.4624 473.2416 449.1776 463.2064 178.9952-7.424 408.576-168.9088 437.9648-463.2064h-94.5664z" fill="#81BDA4" p-id="2094"></path><path d="M465.152 441.7536c-4.9152 44.3392-42.4448 78.848-88.1152 78.848s-83.2-34.5088-88.1152-78.848H224c-7.2704 0-13.056 6.4512-12.7488 14.1312 7.2192 166.8608 134.144 293.6832 318.6688 299.8784 169.8816 5.6832 307.7632-140.5952 307.7632-314.0096H465.152z" fill="#E56A77" p-id="2095"></path><path d="M976.4864 416.5632H452.864c-8.4992 0-15.36 6.8608-15.36 15.36 0 33.3312-27.136 60.4672-60.4672 60.4672s-60.4672-27.136-60.4672-60.4672c0-8.4992-6.8608-15.36-15.36-15.36H47.5136c-8.4992 0-15.36 6.8608-15.36 15.36 0 269.312 215.2448 488.448 479.8464 488.448 264.5504 0 479.8464-219.0848 479.8464-488.448 0-8.4992-6.912-15.36-15.36-15.36z m-689.3056 30.72c0.4608 2.6624 1.024 5.3248 1.7408 7.936 10.3424 39.0144 45.9264 67.8912 88.1664 67.8912s77.824-28.8768 88.1664-67.8912c0.6656-2.6112 1.28-5.2736 1.7408-7.936h369.7664c-7.8848 175.616-150.528 316.0064-324.7104 316.0064s-316.7744-140.3904-324.7104-316.0064h99.84z m224.8192 442.368c-242.5856 0-440.8832-197.0688-448.8704-442.368h93.4912c7.936 192.5632 164.2496 346.7264 355.3792 346.7264s347.4432-154.1632 355.3792-346.7264h93.4912c-7.9872 245.2992-206.2848 442.368-448.8704 442.368z" fill="#333333" p-id="2096"></path><path d="M505.4976 611.4816c-3.7376 0-7.5264-1.3824-10.496-4.1472l-28.16-26.368a15.36512 15.36512 0 0 1-0.7168-21.7088 15.36512 15.36512 0 0 1 21.7088-0.7168l28.16 26.368a15.36512 15.36512 0 0 1-10.496 26.5728zM629.4016 530.3296c-5.3248 0-10.496-2.7648-13.312-7.68a15.3856 15.3856 0 0 1 5.632-20.992l43.6736-25.1904c7.3728-4.2496 16.7424-1.6896 20.992 5.632 4.2496 7.3728 1.6896 16.7424-5.632 20.992l-43.6736 25.1904c-2.4576 1.3824-5.12 2.048-7.68 2.048zM706.4064 620.6464c-8.4992 0-15.36-6.8608-15.36-15.36v-44.6464c0-8.4992 6.8608-15.36 15.36-15.36s15.36 6.8608 15.36 15.36v44.6464c0 8.448-6.912 15.36-15.36 15.36zM603.4944 717.1072a15.31904 15.31904 0 0 1-14.5408-20.1728l15.5136-46.848a15.36 15.36 0 0 1 19.4048-9.728 15.36 15.36 0 0 1 9.728 19.4048l-15.5136 46.848a15.41632 15.41632 0 0 1-14.592 10.496zM504.6272 732.8768c-4.9152 0-9.7792-2.3552-12.7488-6.7584l-26.4192-39.2192c-4.7616-7.0144-2.8672-16.5888 4.1472-21.2992 7.0656-4.7616 16.5888-2.8672 21.2992 4.1472l26.4192 39.2192c4.7616 7.0144 2.8672 16.5888-4.1472 21.2992-2.6112 1.792-5.5808 2.6112-8.5504 2.6112zM355.7376 680.192c-7.0656 0-13.4144-4.9152-15.0016-12.0832l-10.3424-47.4112c-1.792-8.2944 3.4304-16.4864 11.7248-18.2784a15.3088 15.3088 0 0 1 18.2784 11.7248l10.3424 47.4112a15.34976 15.34976 0 0 1-15.0016 18.6368zM252.2624 546.7136c-4.5568 0-9.0624-1.9968-12.0832-5.8368-5.2736-6.656-4.096-16.3328 2.56-21.5552l24.576-19.3536c6.656-5.2224 16.3328-4.096 21.5552 2.56 5.2736 6.656 4.096 16.3328-2.56 21.5552l-24.576 19.3536c-2.7648 2.2016-6.144 3.2768-9.472 3.2768z" fill="#333333" p-id="2097"></path><path d="M452.3008 310.6816c-20.1728-10.752-76.7488-40.8576-95.5392-50.8416-16.9472 31.7952-9.2672 68.9664 17.1008 82.9952s61.4912-0.3584 78.4384-32.1536z" fill="#E56A77" p-id="2098"></path><path d="M385.2288 366.1824c-14.4384 0-29.0816-3.4304-42.7008-10.7008-21.504-11.4176-37.2736-30.5664-44.3392-53.8624-7.1168-23.296-4.7104-47.9744 6.7072-69.4784 1.8944-3.584 5.1712-6.2976 9.0624-7.4752 3.8912-1.1776 8.0896-0.768 11.7248 1.1264l133.8368 71.2704c3.584 1.8944 6.2976 5.1712 7.4752 9.0624 1.1776 3.8912 0.768 8.0896-1.1264 11.7248-16.384 30.7712-48.0256 48.3328-80.64 48.3328zM326.5024 261.12c-2.4576 10.3424-2.1504 21.1456 1.024 31.5904 4.7104 15.4624 15.1552 28.1088 29.44 35.7376 24.7296 13.1584 54.6304 7.3728 72.8064-12.3392L326.5024 261.12z" fill="#333333" p-id="2099"></path></svg>