<?xml version="1.0" standalone="no"?><!DOCTYPE svg PUBLIC "-//W3C//DTD SVG 1.1//EN" "http://www.w3.org/Graphics/SVG/1.1/DTD/svg11.dtd"><svg t="1603025894929" class="icon" viewBox="0 0 1024 1024" version="1.1" xmlns="http://www.w3.org/2000/svg" p-id="1240" xmlns:xlink="http://www.w3.org/1999/xlink" width="200" height="200"><defs><style type="text/css"></style></defs><path d="M320.343 817.509l-107.96 64.63V755.395C128.047 689.322 75.413 595.667 75.413 491.81 75.414 291.664 270.88 129.414 512 129.414s436.586 162.25 436.586 362.395c0 200.145-195.466 362.395-436.586 362.395-68.756 0-133.8-13.193-191.657-36.695z" fill="#85E194" p-id="1241"></path><path d="M385.314 232.828c6.302 0.141 11.297 5.365 11.156 11.667-0.141 6.302-5.364 11.297-11.666 11.156a168.294 168.294 0 0 0-9.64 0.06c-70.086 2.448-130.316 48.6-151.658 114.2-1.95 5.995-8.39 9.274-14.385 7.324-5.994-1.95-9.273-8.39-7.323-14.385 24.287-74.654 92.82-127.168 172.57-129.952 3.658-0.128 7.308-0.151 10.946-0.07z" fill="#FFFFFF" p-id="1242"></path><path d="M423.541 243.554m-11.414 0a11.414 11.414 0 1 0 22.828 0 11.414 11.414 0 1 0-22.828 0Z" fill="#FFFFFF" p-id="1243"></path><path d="M342.103 437.592h94.375l-55.53 136.969h-94.375zM690.23 437.592h94.375l-55.53 136.969H634.7z" fill="#FFFFFF" opacity=".796" p-id="1244"></path><path d="M440.662 494.662h114.14v-79.898h239.695V597.39H554.803V517.49h-114.14v79.899H200.967V414.764h239.694v79.898z m-216.866-57.07v136.969h194.038V437.592H223.796z m353.835 0v136.969h194.038V437.592H577.63z" fill="#834038" p-id="1245"></path><path d="M290.74 437.592h30.426l-55.53 136.969H235.21zM638.868 437.592h30.425l-55.53 136.969h-30.425z" fill="#FFFFFF" opacity=".796" p-id="1246"></path><path d="M319.364 804.792l5.275 2.142C382.43 830.41 446.133 842.79 512 842.79c235.237 0 425.172-157.659 425.172-350.981 0-193.323-189.935-350.981-425.172-350.981-235.237 0-425.172 157.658-425.172 350.98 0 97.437 48.408 188.646 132.594 254.603l4.374 3.427v112.165l95.568-57.211z m-118.396 97.483V760.907C114.16 691.055 64 594.855 64 491.809 64 284.84 264.997 118 512 118s448 166.841 448 373.809c0 206.968-200.997 373.809-448 373.809-66.798 0-131.537-12.203-190.643-35.413l-120.389 72.07z" fill="#834038" p-id="1247"></path><path d="M383.492 689.073c-5.427-3.208-7.226-10.207-4.019-15.634 3.208-5.427 10.207-7.226 15.634-4.018 29.247 17.287 65.076 26.84 102.863 26.84 39.132 0 76.149-10.249 105.899-28.678 5.359-3.32 12.394-1.666 15.713 3.693 3.32 5.359 1.667 12.394-3.692 15.714-33.41 20.696-74.596 32.1-117.92 32.1-41.825 0-81.67-10.625-114.478-30.017z" fill="#834038" p-id="1248"></path></svg>